<svg xmlns="http://www.w3.org/2000/svg" width="1400" height="1000" viewBox="0 0 1400 1000" role="img" aria-label="Novaone operations workspace">
  <defs>
    <linearGradient id="g" x1="0" y1="0" x2="1" y2="1">
      <stop offset="0" stop-color="#0f766e"/>
      <stop offset=".52" stop-color="#2563eb"/>
      <stop offset="1" stop-color="#7c3aed"/>
    </linearGradient>
    <pattern id="p" width="54" height="54" patternUnits="userSpaceOnUse">
      <path d="M54 0H0v54" fill="none" stroke="#ffffff" stroke-opacity=".1"/>
    </pattern>
  </defs>
  <rect width="1400" height="1000" fill="url(#g)"/>
  <rect width="1400" height="1000" fill="url(#p)"/>
  <g fill="#fff" opacity=".95">
    <rect x="120" y="150" width="500" height="300" rx="20" opacity=".16"/>
    <rect x="165" y="195" width="180" height="24" rx="12"/>
    <rect x="165" y="248" width="390" height="20" rx="10" opacity=".62"/>
    <rect x="165" y="292" width="310" height="20" rx="10" opacity=".48"/>
    <rect x="165" y="350" width="110" height="52" rx="10" opacity=".8"/>
    <rect x="295" y="350" width="110" height="52" rx="10" opacity=".55"/>
    <rect x="425" y="350" width="110" height="52" rx="10" opacity=".7"/>
    <rect x="720" y="130" width="450" height="620" rx="24" opacity=".15"/>
    <rect x="770" y="190" width="320" height="26" rx="13"/>
    <rect x="770" y="265" width="100" height="360" rx="14" opacity=".7"/>
    <rect x="905" y="335" width="100" height="290" rx="14" opacity=".46"/>
    <rect x="1040" y="245" width="100" height="380" rx="14" opacity=".86"/>
    <circle cx="337" cy="690" r="120" opacity=".22"/>
    <circle cx="337" cy="690" r="76" opacity=".42"/>
    <path d="M337 690l28-68a74 74 0 0146 92z" opacity=".92"/>
  </g>
</svg>
