<svg xmlns="http://www.w3.org/2000/svg" viewBox="0 0 180 180">
  <defs>
    <linearGradient id="g" x1="0" x2="1" y1="0" y2="1">
      <stop offset="0" stop-color="#9bd970"/>
      <stop offset="1" stop-color="#0a7d42"/>
    </linearGradient>
    <radialGradient id="p" cx="50%" cy="45%" r="45%">
      <stop offset="0" stop-color="#fff"/>
      <stop offset="0.72" stop-color="#f7fff7"/>
      <stop offset="1" stop-color="#dbeed5"/>
    </radialGradient>
  </defs>
  <rect width="180" height="180" rx="10" fill="url(#g)"/>
  <g opacity=".35" fill="#0c5d2f">
    <circle cx="22" cy="26" r="18"/><circle cx="154" cy="31" r="22"/><circle cx="139" cy="153" r="28"/>
    <path d="M12 138c48-16 84-13 156 8v34H12z"/>
  </g>
  <g transform="translate(90 96)">
    <path d="M0-55C-18-35-20-14 0 6C20-14 18-35 0-55Z" fill="url(#p)"/>
    <path d="M-30-38C-40-14-32 5-2 10C7-16-6-32-30-38Z" fill="#fff"/>
    <path d="M30-38C6-32-7-16 2 10C32 5 40-14 30-38Z" fill="#fff"/>
    <path d="M-55-12C-41 9-21 18-1 10C-14-12-33-20-55-12Z" fill="#f9fff8"/>
    <path d="M55-12C33-20 14-12 1 10C21 18 41 9 55-12Z" fill="#f9fff8"/>
    <circle cx="0" cy="8" r="12" fill="#e6c34f"/>
    <circle cx="0" cy="8" r="5" fill="#b28c22"/>
  </g>
</svg>
